# xmcd
#
# Track frame offsets:
#   150
#   21151
#   34341
#   47562
#   64633
#   76694
#   99225
#   115044
#   130618
#   151016
#   165806
#   177905
#   188628
#   202639
#   217124
#   233041
#
# Disc length: 3298 seconds
#
# Revision: 0
# Processed by: cddbd v1.5.2PL0 Copyright (c) Steve Scherf et al.
# Submitted via: uFREEDB ActiveX Control 1.5
#
DISCID=b30ce010
DTITLE=Hugo Pena e Gabriel - Ao vivo 2008
DYEAR=2008
DGENRE=Country
TTITLE0=Morro de saudade
TTITLE1=Bandidaça
TTITLE2=Mala pronta
TTITLE3=Por enquanto adeus
TTITLE4=Tadin tadin
TTITLE5=Parece castigo
TTITLE6=Pra lá de Bagda
TTITLE7=Pagode de viola
TTITLE8=Vou te amar
TTITLE9=Meu calor
TTITLE10=Robin Hood da paixão
TTITLE11=Abuso de mulher
TTITLE12=Coisas exotéricas
TTITLE13=Fora do eixo
TTITLE14=Amanhã vazio
TTITLE15=Ela é violenta
EXTD=
EXTT0=
EXTT1=
EXTT2=
EXTT3=
EXTT4=
EXTT5=
EXTT6=
EXTT7=
EXTT8=
EXTT9=
EXTT10=
EXTT11=
EXTT12=
EXTT13=
EXTT14=
EXTT15=
PLAYORDER=
